<svg class="svg-icon" style="width: 1em; height: 1em;vertical-align: middle;fill: currentColor;overflow: hidden;" viewBox="0 0 1024 1024" version="1.1" xmlns="http://www.w3.org/2000/svg"><path d="M908.650667 877.461333l-162.304-169.685333v102.570667a85.333333 85.333333 0 0 1-85.333334 85.333333h-554.666666a85.333333 85.333333 0 0 1-85.333334-85.333333v-597.333334a85.333333 85.333333 0 0 1 85.333334-85.333333h554.666666a85.333333 85.333333 0 0 1 85.333334 85.333333v95.168l162.304-162.304a68.608 68.608 0 0 1 94.058666 0v731.584a68.565333 68.565333 0 0 1-94.058666 0z m50.538666-718.378666c-78.421333 78.442667-190.912 188.48-255.509333 251.498666V213.013333a42.666667 42.666667 0 0 0-42.666667-42.666666h-554.666666a42.666667 42.666667 0 0 0-42.666667 42.666666v597.333334a42.666667 42.666667 0 0 0 42.666667 42.666666h554.666666a42.666667 42.666667 0 0 0 42.666667-42.666666v-197.290667c64.704 63.445333 177.429333 174.250667 256 252.885333-0.661333-0.704 0.426667-707.754667-0.490667-706.858666z" fill="#333333" /></svg>